Coordinates
version=1
nRows=25
nColumns=28
inDegrees=yes

Units are S.I. units (second, meters, Newtons, ...)
Angles are in degrees.

endheader
time	pelvis_tilt	pelvis_list	pelvis_rotation	pelvis_tx	pelvis_ty	pelvis_tz	hip_flexion_r	hip_adduction_r	hip_rotation_r	knee_angle_r	ankle_angle_r	subtalar_angle_r	mtp_angle_r	hip_flexion_l	hip_adduction_l	hip_rotation_l	knee_angle_l	socket_flexion	socket_adduction	socket_rotation	socket_tx	socket_ty	socket_tz	foot_flex	lumbar_extension	lumbar_bending	lumbar_rotation
      0.96666667	      8.62371580	      1.74909981	     -5.03707318	      0.39517617	      1.03279079	      0.28436001	      0.28771422	      2.46802939	      0.67563482	    -24.07731401	      5.00550292	     -4.75773827	     34.11437315	     -3.79322864	      1.55056466	     -1.89849132	    -52.67059811	      0.00000000	      0.00000000	      0.00000000	      0.00000000	      0.00000000	      0.00000000	      4.35514447	    -16.06787729	     -2.22935946	     10.51497865
      0.97083333	      8.64543361	      1.75535357	     -5.29304900	      0.39928033	      1.03367677	      0.28481230	     -0.01190853	      2.37074445	      0.62412753	    -24.02301490	      4.98830418	     -4.70856257	     34.12699584	     -3.23995721	      1.52097145	     -1.85367909	    -52.37944193	      0.00000000	      0.00000000	      0.00000000	      0.00000000	      0.00000000	      0.00000000	      4.37808947	    -16.19683726	     -2.26081559	     10.55494746
      0.97500000	      8.59223414	      1.95146826	     -5.56695618	      0.40410248	      1.03461694	      0.28537842	     -0.48746259	      2.09369883	      0.83042210	    -23.47029587	      4.78357861	     -4.24470901	     34.24068619	     -2.72283306	      1.71411189	     -1.76397535	    -51.86445905	      0.00000000	      0.00000000	      0.00000000	      0.00000000	      0.00000000	      0.00000000	      4.31126492	    -16.03995234	     -2.59804367	     10.86201558
      0.97916667	      8.56475183	      2.03515929	     -5.88660538	      0.40858090	      1.03545123	      0.28597300	     -0.84726349	      1.91388779	      0.91658391	    -23.19057385	      4.61319276	     -3.75490070	     34.40858379	     -2.20552317	      1.78555784	     -1.72067489	    -51.38808511	      0.00000000	      0.00000000	      0.00000000	      0.00000000	      0.00000000	      0.00000000	      4.27106643	    -16.00251548	     -2.79703702	     11.21083691
      0.98333333	      8.53965034	      2.10289550	     -6.18875253	      0.41293846	      1.03622377	      0.28647879	     -1.17552670	      1.74332530	      0.96736498	    -22.95824571	      4.51076942	     -3.25690065	     34.62277806	     -1.68591775	      1.83951221	     -1.66321950	    -50.89822152	      0.00000000	      0.00000000	      0.00000000	      0.00000000	      0.00000000	      0.00000000	      4.25053899	    -15.98277785	     -2.97103000	     11.54450808
      0.98750000	      8.50747908	      2.16169239	     -6.46355380	      0.41732163	      1.03695489	      0.28697133	     -1.49966311	      1.58535341	      0.99397337	    -22.73147618	      4.45663909	     -2.92093633	     34.77372080	     -1.17925393	      1.88408719	     -1.55437678	    -50.34446674	      0.00000000	      0.00000000	      0.00000000	      0.00000000	      0.00000000	      0.00000000	      4.24857829	    -15.95297628	     -3.10464978	     11.74748735
      0.99166667	      8.46148926	      2.21709584	     -6.73671897	      0.42166892	      1.03763565	      0.28748616	     -1.82483448	      1.43664291	      1.04851395	    -22.46819733	      4.36286125	     -2.51477865	     34.95272397	     -0.65672174	      1.92466006	     -1.42835105	    -49.78403986	      0.00000000	      0.00000000	      0.00000000	      0.00000000	      0.00000000	      0.00000000	      4.20697193	    -15.90996518	     -3.25185007	     11.98432029
      0.99583333	      8.46898066	      2.18919400	     -6.97671096	      0.42551720	      1.03822545	      0.28795985	     -2.07498201	      1.38162528	      0.99963820	    -22.44799073	      4.35586469	     -2.45977345	     34.97785225	     -0.11023621	      1.85679579	     -1.32806037	    -49.33780042	      0.00000000	      0.00000000	      0.00000000	      0.00000000	      0.00000000	      0.00000000	      4.23994960	    -16.05816321	     -3.28276473	     12.01884318
      1.00000000	      8.32013361	      2.37738184	     -7.32493100	      0.43028958	      1.03863671	      0.28836294	     -2.21263513	      0.97951178	      0.74414865	    -22.27507040	      4.18495144	     -0.57015095	     36.72902376	      0.42367960	      2.07178595	     -1.19106609	    -48.56233025	      0.00000000	      0.00000000	      0.00000000	      0.00000000	      0.00000000	      0.00000000	      4.16213119	    -15.77251923	     -3.61647763	     12.70388456
      1.00416667	      8.25870778	      2.38572046	     -7.54592616	      0.43463990	      1.03919494	      0.28878998	     -2.54830873	      0.89766647	      0.81473077	    -21.97220756	      4.09980400	     -0.46442455	     36.79240812	      0.92151004	      2.06079640	     -0.98897962	    -47.88889555	      0.00000000	      0.00000000	      0.00000000	      0.00000000	      0.00000000	      0.00000000	      4.11466225	    -15.72619613	     -3.67219806	     12.77623378
      1.00833333	      8.18432257	      2.37321875	     -7.77673662	      0.43893136	      1.03969492	      0.28926295	     -2.86559297	      0.84470583	      0.91095190	    -21.67611053	      3.97991934	     -0.30489180	     36.86750583	      1.42671568	      2.02325918	     -0.78376516	    -47.19502975	      0.00000000	      0.00000000	      0.00000000	      0.00000000	      0.00000000	      0.00000000	      4.07571366	    -15.67154777	     -3.72457771	     12.90590630
      1.01250000	      8.08291408	      2.33635865	     -8.02538637	      0.44317548	      1.04011512	      0.28971369	     -3.16231923	      0.82029335	      1.05705367	    -21.34547008	      3.78236757	     -0.05355182	     37.00952695	      1.95073305	      1.95853726	     -0.57944940	    -46.48990015	      0.00000000	      0.00000000	      0.00000000	      0.00000000	      0.00000000	      0.00000000	      4.03321895	    -15.59628477	     -3.75566408	     13.14617275
      1.01666667	      8.04263312	      2.28153581	     -8.25931043	      0.44722342	      1.04048134	      0.29015159	     -3.39782357	      0.79850798	      1.06656941	    -21.28366336	      3.76633662	      0.00235147	     37.04429280	      2.41117159	      1.87401845	     -0.36415147	    -45.75263145	      0.00000000	      0.00000000	      0.00000000	      0.00000000	      0.00000000	      0.00000000	      4.04454189	    -15.62974436	     -3.74386490	     13.19970519
      1.02083333	      7.90365249	      2.25909549	     -8.45519488	      0.45161024	      1.04080182	      0.29058888	     -3.72622099	      0.78053639	      1.24437671	    -20.83270075	      3.63212786	      0.24723777	     37.15656736	      2.93384817	      1.81146478	     -0.11145565	    -44.95378767	      0.00000000	      0.00000000	      0.00000000	      0.00000000	      0.00000000	      0.00000000	      3.94448934	    -15.47304483	     -3.79010401	     13.41819293
      1.02500000	      7.83847130	      2.18132563	     -8.68889929	      0.45564275	      1.04105489	      0.29100038	     -3.95065204	      0.78658236	      1.28310482	    -20.74399760	      3.58820598	      0.33089451	     37.20150568	      3.39200332	      1.70312064	      0.13849298	    -44.16570795	      0.00000000	      0.00000000	      0.00000000	      0.00000000	      0.00000000	      0.00000000	      3.93937493	    -15.48151159	     -3.75530178	     13.50125992
      1.02916667	      7.70475409	      2.12250562	     -8.87410770	      0.45988141	      1.04124792	      0.29138063	     -4.22326223	      0.79575261	      1.40399149	    -20.41497927	      3.51242870	      0.49317400	     37.27069513	      3.89785014	      1.59502529	      0.40692381	    -43.33002027	      0.00000000	      0.00000000	      0.00000000	      0.00000000	      0.00000000	      0.00000000	      3.85394746	    -15.37917106	     -3.72849993	     13.65479011
      1.03333333	      7.40941680	      2.01153415	     -9.12129261	      0.46403818	      1.04116576	      0.29196559	     -4.30157689	      0.91109876	      1.65225102	    -20.10442237	      3.17712259	      0.67655829	     37.73891225	      4.58551318	      1.38391439	      0.60092187	    -42.54341075	      0.00000000	      0.00000000	      0.00000000	      0.00000000	      0.00000000	      0.00000000	      3.82018304	    -15.08661300	     -3.70814938	     14.12617533
      1.03750000	      7.36755971	      1.93308951	     -9.31178786	      0.46761171	      1.04120795	      0.29234892	     -4.49138073	      0.92085331	      1.64255910	    -20.08308000	      3.18969209	      0.69789426	     37.75600785	      5.07541615	      1.24419762	      0.82085960	    -41.79719081	      0.00000000	      0.00000000	      0.00000000	      0.00000000	      0.00000000	      0.00000000	      3.83169415	    -15.21711339	     -3.70073800	     14.13856644
      1.04166667	      7.14671084	      1.80804812	     -9.38864499	      0.47205713	      1.04123881	      0.29264792	     -4.79737100	      1.05747553	      1.85925041	    -19.58097543	      3.11106141	      0.85899143	     37.83594792	      5.60108303	      1.06246509	      1.26272653	    -40.85117930	      0.00000000	      0.00000000	      0.00000000	      0.00000000	      0.00000000	      0.00000000	      3.68372250	    -14.97109947	     -3.57423217	     14.26470433
      1.04583333	      7.02626523	      1.68358406	     -9.55553312	      0.47591683	      1.04117974	      0.29300795	     -4.98335690	      1.14244582	      1.90939000	    -19.44802261	      3.07293269	      0.89825013	     37.86607327	      6.08608577	      0.87163779	      1.56660377	    -39.98418929	      0.00000000	      0.00000000	      0.00000000	      0.00000000	      0.00000000	      0.00000000	      3.62809967	    -14.94854459	     -3.47681551	     14.32020425
      1.05000000	      6.67817231	      1.48324549	     -9.63235994	      0.47997351	      1.04088641	      0.29331200	     -5.07544528	      1.39703368	      2.14648295	    -19.06539225	      2.80363911	      0.80251136	     37.93954745	      6.81632979	      0.55653550	      1.94216654	    -39.16235500	      0.00000000	      0.00000000	      0.00000000	      0.00000000	      0.00000000	      0.00000000	      3.57474265	    -14.65152447	     -3.25559073	     14.46267706
      1.05416667	      6.58904614	      1.36871475	     -9.78473298	      0.48370399	      1.04072992	      0.29369087	     -5.24507193	      1.47498631	      2.18109405	    -19.04292942	      2.83181412	      0.80863666	     37.95769843	      7.25351588	      0.37274985	      2.25120618	    -38.25037578	      0.00000000	      0.00000000	      0.00000000	      0.00000000	      0.00000000	      0.00000000	      3.52892958	    -14.67761635	     -3.19588601	     14.48630495
      1.05833333	      6.08287101	      1.15382157	     -9.79213844	      0.48771523	      1.04012959	      0.29396933	     -5.22027084	      1.80962383	      2.52036151	    -18.57789293	      2.62596581	      0.34883269	     37.93631852	      8.16700474	      0.00504002	      2.67552444	    -37.44589639	      0.00000000	      0.00000000	      0.00000000	      0.00000000	      0.00000000	      0.00000000	      3.42318716	    -14.21804966	     -2.92575343	     14.55301088
      1.06250000	      5.98226869	      1.07174895	     -9.83903769	      0.49082141	      1.04014559	      0.29496208	     -5.35639741	      1.95969887	      2.59862761	    -18.53712525	      2.64659261	      0.32599772	     37.93148677	      8.62778770	     -0.22409198	      2.92713002	    -36.45699580	      0.00000000	      0.00000000	      0.00000000	      0.00000000	      0.00000000	      0.00000000	      3.26288151	    -14.30042845	     -2.98701650	     14.54653265
      1.06666667	      5.53151887	      0.79541656	     -9.95285928	      0.49497770	      1.03956168	      0.29539307	     -5.47688633	      2.37490948	      3.27217624	    -17.95605898	      2.40990673	     -0.74050005	     37.50059841	      9.43196332	     -0.65747300	      3.29681235	    -35.62481189	      0.00000000	      0.00000000	      0.00000000	      0.00000000	      0.00000000	      0.00000000	      3.15067207	    -13.89212830	     -2.66307111	     14.66240383
